<svg width="32" height="32" viewBox="0 0 32 32" xmlns="http://www.w3.org/2000/svg">
  <defs>
    <linearGradient id="bg" x1="0%" y1="0%" x2="100%" y2="100%">
      <stop offset="0%" style="stop-color:#1e3a8a;stop-opacity:1" />
      <stop offset="100%" style="stop-color:#1e40af;stop-opacity:1" />
    </linearGradient>
  </defs>
  
  <!-- Fondo circular -->
  <circle cx="16" cy="16" r="15" fill="url(#bg)" stroke="#fbbf24" stroke-width="1"/>
  
  <!-- Estrellas (12 estrellas como en la descripción) -->
  <g fill="#fbbf24">
    <!-- Estrellas superiores -->
    <polygon points="8,8 9,10 11,10 9.5,11.5 10,14 8,12.5 6,14 6.5,11.5 5,10 7,10" />
    <polygon points="12,6 13,8 15,8 13.5,9.5 14,12 12,10.5 10,12 10.5,9.5 9,8 11,8" />
    <polygon points="16,4 17,6 19,6 17.5,7.5 18,10 16,8.5 14,10 14.5,7.5 13,6 15,6" />
    <polygon points="20,6 21,8 23,8 21.5,9.5 22,12 20,10.5 18,12 18.5,9.5 17,8 19,8" />
    <polygon points="24,8 25,10 27,10 25.5,11.5 26,14 24,12.5 22,14 22.5,11.5 21,10 23,10" />
    <polygon points="26,12 27,14 29,14 27.5,15.5 28,18 26,16.5 24,18 24.5,15.5 23,14 25,14" />
    
    <!-- Estrellas inferiores -->
    <polygon points="8,24 9,26 11,26 9.5,27.5 10,30 8,28.5 6,30 6.5,27.5 5,26 7,26" />
    <polygon points="12,26 13,28 15,28 13.5,29.5 14,32 12,30.5 10,32 10.5,29.5 9,28 11,28" />
    <polygon points="16,28 17,30 19,30 17.5,31.5 18,34 16,32.5 14,34 14.5,31.5 13,30 15,30" />
    <polygon points="20,26 21,28 23,28 21.5,29.5 22,32 20,30.5 18,32 18.5,29.5 17,28 19,28" />
    <polygon points="24,24 25,26 27,26 25.5,27.5 26,30 24,28.5 22,30 22.5,27.5 21,26 23,26" />
    <polygon points="26,20 27,22 29,22 27.5,23.5 28,26 26,24.5 24,26 24.5,23.5 23,22 25,22" />
  </g>
  
  <!-- Texto AVE EUROPA -->
  <text x="16" y="18" font-family="Arial, sans-serif" font-size="5" font-weight="bold" text-anchor="middle" fill="white">AVE</text>
  <text x="16" y="24" font-family="Arial, sans-serif" font-size="5" font-weight="bold" text-anchor="middle" fill="white">EUROPA</text>
  
  <!-- Corona de laurel -->
  <path d="M4,16 Q2,12 4,8 Q6,4 8,6 Q6,10 4,16" fill="none" stroke="white" stroke-width="1.5" stroke-linecap="round"/>
  <path d="M6,14 Q4,10 6,6" fill="none" stroke="white" stroke-width="1" stroke-linecap="round"/>
  <path d="M28,16 Q30,12 28,8 Q26,4 24,6 Q26,10 28,16" fill="none" stroke="white" stroke-width="1.5" stroke-linecap="round"/>
  <path d="M26,14 Q28,10 26,6" fill="none" stroke="white" stroke-width="1" stroke-linecap="round"/>
  
  <!-- Arcos amarillos externos -->
  <path d="M26,8 Q28,4 30,8" fill="none" stroke="#fbbf24" stroke-width="1.5" stroke-linecap="round"/>
  <path d="M26,24 Q28,28 30,24" fill="none" stroke="#fbbf24" stroke-width="1.5" stroke-linecap="round"/>
</svg> 